<?xml version="1.0" encoding="utf-8"?>
<!-- Generator: Adobe Illustrator 26.5.0, SVG Export Plug-In . SVG Version: 6.00 Build 0)  -->
<svg version="1.1" id="Layer_1" xmlns="http://www.w3.org/2000/svg" xmlns:xlink="http://www.w3.org/1999/xlink" x="0px" y="0px"
	 width="24px" height="24px" viewBox="0 0 24 24" style="enable-background:new 0 0 24 24;" xml:space="preserve">
<style type="text/css">
	.st0{fill:none;stroke:#00CEA6;stroke-width:1.5;stroke-linecap:round;stroke-linejoin:round;}
	.st1{fill:#118E3B;stroke:#1BCE85;stroke-width:1.5;stroke-linecap:round;stroke-linejoin:round;}
	.st2{fill:#00CEA6;}
	.st3{fill:#00E510;}
	.st4{fill:none;}
</style>
<path class="st0" d="M6.7,12.8L4.8,9.7C4.3,9,4.7,8.1,5.6,7.8s1.8-0.2,2.3,0.6l1.7,2.3"/>
<path class="st0" d="M9.3,10.2L7.6,7.6C7.2,6.8,7.5,6,8.6,5.6c0.9-0.4,2.1-0.2,2.8,0.9l1.8,2.9"/>
<path class="st0" d="M11.6,6.7c-0.2-0.9,0.4-1.3,0.9-1.5c0.9-0.4,2.1-0.1,2.6,0.7L16.5,8"/>
<path class="st0" d="M6.6,12.9l-0.3-0.3c-0.5-0.5-1.4-0.7-2-0.4c-0.3,0.2-0.6,0.4-0.9,0.7C3.2,13,3.2,13,3.1,13.1
	c-0.3,0.5-0.6,0.9-0.2,1.6c0.3,0.5,1,1.2,2.2,2.1c1.4,1.1,4.1,2.3,4.1,2.3c2.3,0.9,4.6,0.9,7.2,0.1l2.3-0.9c3.2-1.6,4.4-3.5,3.8-6.1
	C22,10.3,21,8.7,21,8.7"/>
<path class="st0" d="M21,8.7l-1.4-2.3c-0.4-0.7-1.4-1.1-2.3-0.8l0,0C15.8,6,15.8,7.1,16.5,8c0.1,0.1,0-0.1,0,0"/>
<path class="st1" d="M-5-8.5"/>
<path class="st2" d="M5.6,0.9C2.7,2.2,1,4,0.5,6.3C0,8.2,0,9.8,0.5,12.1c0.1,0.2,0.1,0.5,0.3,0.8c0.5,1.2,1.6,2.5,1.8,2.7
	c1.3,0.9,3.6,2.7,3.6,2.5c0,0-4.4-3.2-3.5-4.7c-0.3-0.8,3.3-1.3,3.1-1.9C5,9.3,4.1,7.3,4.1,5.8C4,4.5,4.3,3.4,5.1,2.5
	c0.7-0.6,1.1-1,1.9-1.3c0.7-0.3,1.5-0.6,2.6-0.6c1.4-0.1,3.1,0.2,5.3,1.2C18,3.2,20,5.6,20,5.7C16.3,0.8,10.3-1.1,5.6,0.9z"/>
<path class="st3" d="M5.2,15.8"/>
<path class="st4" d="M4.3,15.1"/>
<path class="st2" d="M1.5,14.4c0,0,0.9,3.6,4.9,5.7c2.3,1.2,4.1,1.6,6.6,1.3c2.4-0.2,3.9-1.3,5.1-2.1c0.3-0.2,4.4-4.5,4.4-4.5
	c0.3-1.3,0-3.1-0.6-4.4c-0.4-0.9-0.2-1.6,0.4-0.3l0,0c0.6,1.1,1,2.2,1.1,3.4c0.3,1.7,0.4,4.1-0.4,5.8c-0.6,1.2-1.9,2.6-4.4,3.6
	c-3.1,1.2-7.5,0.9-10.6-0.6c-2.2-1-3.2-1.7-4.4-3.2C1.9,17,1.5,14.4,1.5,14.4z"/>
</svg>
