<?xml version="1.0" encoding="utf-8"?>
<!-- Generator: Adobe Illustrator 26.5.0, SVG Export Plug-In . SVG Version: 6.00 Build 0)  -->
<svg version="1.1" id="Layer_1" xmlns="http://www.w3.org/2000/svg" xmlns:xlink="http://www.w3.org/1999/xlink" x="0px" y="0px"
	 width="24px" height="24px" viewBox="0 0 24 24" style="enable-background:new 0 0 24 24;" xml:space="preserve">
<style type="text/css">
	.st0{fill:none;stroke:#007E65;stroke-width:1.2;stroke-linecap:round;stroke-linejoin:round;}
	.st1{fill:#118E3B;stroke:#1BCE85;stroke-width:1.5;stroke-linecap:round;stroke-linejoin:round;}
	.st2{fill:#007E65;}
	.st3{fill:#00E510;}
	.st4{fill:none;}
</style>
<path class="st0" d="M8.9,16.8L7,14.3c-0.3-0.4-0.4-1.5,0.7-2c0.8-0.5,1.7-0.2,2.2,0.6l0.8,0.9"/>
<path class="st0" d="M10.8,13.8l-1.1-1.5c-0.4-0.6-0.2-1.2,0.8-1.6c0.8-0.4,1.8,0,2.4,0.8l0.9,1.2"/>
<path class="st0" d="M12.8,11.1c-0.2-0.9,0.3-1.1,0.9-1.3c1.5-0.4,2.2,0.6,2.6,1.2l0.9,1"/>
<path class="st0" d="M8.9,16.8c0,0-0.7-0.7-1.3-1.3c-0.2-0.3-0.9-0.8-1.6-0.2c-0.6,0.6,0,1.8,0,1.9c-0.5,1.2,0.1,1.9,0.8,2.4
	c0.6,0.5,1.4,1.1,1.4,1.1c0.5,0.4,2.1,1.4,4,1.4c1.6,0.1,3.2-0.1,4.8-0.6c0.6-0.2,1.6-0.6,2.5-1.4c1-1,1.8-2.2,1.8-3.9
	c0.1-1.3-0.3-2.5-0.9-3.6c-0.6-1-1.2-1.7-1.6-2.1c-0.5-0.4-0.9-0.6-1.4-0.7c-0.6-0.1-1,0.4-1,0.8c0.1,0.6,0.8,1.3,0.8,1.4"/>
<path class="st1" d="M-5-8.5"/>
<path class="st2" d="M12.2,0.7C4.1,0.8,0.4,6.2,0.3,12.1c0.1,5.6,3.8,11.1,12.3,11.2c7.5-0.3,9-5.2,9-5.3c-1.3,1.1-3.8,3.6-5.4,3.7
	c-2.4,0.2-3.5,0.4-5.2-0.3c-2.8-1.2-5.7-2-5.2-4.8c-0.5-1,1-2,1.4-3.5c0-0.5,1-1,0.8-1.5c-0.6-0.9-1.3-2.3-0.5-4
	C8.1,6,9.9,4.4,12.3,4.1C18.4,3.3,22.8,8.5,22.6,15C24.5,11,23,0.9,12.2,0.7z"/>
<path class="st3" d="M8.2,19.6L8.2,19.6z"/>
<path class="st4" d="M7.4,18.9"/>
<g id="Layer_2_00000178920186941683393910000009880265633718493619_">
</g>
</svg>
