<?xml version="1.0" encoding="utf-8"?>
<!-- Generator: Adobe Illustrator 26.5.0, SVG Export Plug-In . SVG Version: 6.00 Build 0)  -->
<svg version="1.1" id="Layer_1" xmlns="http://www.w3.org/2000/svg" xmlns:xlink="http://www.w3.org/1999/xlink" x="0px" y="0px"
	 width="24px" height="24px" viewBox="0 0 24 24" style="enable-background:new 0 0 24 24;" xml:space="preserve">
<style type="text/css">
	.st0{fill:none;stroke:#00CEA6;stroke-width:1.2;stroke-linecap:round;stroke-linejoin:round;}
	.st1{fill:#118E3B;stroke:#1BCE85;stroke-width:1.5;stroke-linecap:round;stroke-linejoin:round;}
	.st2{fill:#00CEA6;}
	.st3{fill:#00E510;}
	.st4{fill:none;}
</style>
<path class="st0" d="M7.7,13.9l-2.2-2.5C5.1,10.5,4.9,9.7,6.2,9c1-0.5,2.2-0.3,2.8,0.5l1.4,1.9"/>
<path class="st0" d="M10.5,11.4L8.7,8.7c-0.4-0.7-0.1-1.5,1-1.9c1-0.4,2.2-0.1,2.9,0.8L14,9.5"/>
<path class="st0" d="M12.9,7.9c-0.3-0.8,0.4-1.3,1-1.5c1-0.4,2,0,2.5,0.8l0.8,1.1"/>
<path class="st0" d="M7.6,13.9c0,0-0.4-0.4-1.3-1.2c-0.6-0.7-1.7-1.1-2.1,0.7c0,0,0.3,1.3,0.3,1.5c-0.6,1.5,0.1,2.3,1,2.9
	c0.7,0.5,1.5,0.9,2.4,1.3l0.7,0.3c1.1,0.5,2.2,0.8,3.4,1.1c1.1,0.1,2.2,0.3,3.4,0.1c0.1,0-0.3,0,0,0"/>
<path class="st0" d="M15.2,20.6c0,0,4.1-0.9,5.9-2.7c1.5-1.3,1.7-2.3,1.7-3.3c0-2-0.7-4-1.7-5.7c-0.3-0.4-0.4-0.8-0.7-1.1l-0.1-0.1
	c-0.8-1.1-1.5-1.6-2.5-1.6c-1.3,0-1.3,0.8-1.3,0.9"/>
<path class="st1" d="M-5-8.5"/>
<path class="st2" d="M14.3,0.9C12,0.1,10.5,0,7.7,0.5C5.1,1,2.5,2.6,1.4,4.5C0,6.7-0.1,9.9,0.6,12.2c0.7,2.4,3.5,5.2,3.6,5.3
	c1.4,0.9,3.5,1.6,3.5,1.5c0,0-4.1-3.1-3.2-4.5c-0.6-0.9,0.6-2.7,1-4.1c0-0.5,1.1-0.9,1-1.5C6.3,8.3,4.9,7,5.7,4.9
	C6.4,3.3,8,2.9,9,2.6c0.8-0.3,2.5-0.4,4.3,0c2.4,0.5,3.1,1.1,4.3,1.7c0,0,0-0.1,0,0C17.3,3.3,16.4,1.7,14.3,0.9z"/>
<path class="st3" d="M6.9,16.7L6.9,16.7z"/>
<path class="st4" d="M6,16.1"/>
<path class="st2" d="M19.4,21.9c-2.7,1.5-5.6,2-8.4,1.7c-2.4-0.3-3.9-1.1-5.2-2.4c1.8,0.8,2.4,0.9,3.4,0.9c1,0,2-0.3,3.6-1.1
	l3.4-0.3c1.4-0.7,2.5-1.3,2.9-1.7c0,0,1.8-0.8,2.5-1.6c1.3-2,1.1-2.8,1.1-5.1c0-0.5-0.2-1.5-0.3-1.9c-0.3-0.5,1.3,1.5,1.3,4.7
	C23.5,18.3,22.1,20.3,19.4,21.9z"/>
</svg>
