<?xml version="1.0" encoding="utf-8"?>
<!-- Generator: Adobe Illustrator 26.5.0, SVG Export Plug-In . SVG Version: 6.00 Build 0)  -->
<svg version="1.1" id="Layer_1" xmlns="http://www.w3.org/2000/svg" xmlns:xlink="http://www.w3.org/1999/xlink" x="0px" y="0px"
	 width="24px" height="24px" viewBox="0 0 24 24" style="enable-background:new 0 0 24 24;" xml:space="preserve">
<style type="text/css">
	.st0{fill:none;stroke:#00CEA6;stroke-width:1.2;stroke-linecap:round;stroke-linejoin:round;}
	.st1{fill:#118E3B;stroke:#1BCE85;stroke-width:1.5;stroke-linecap:round;stroke-linejoin:round;}
	.st2{fill:#00CEA6;}
	.st3{fill:#00E510;}
	.st4{fill:none;}
</style>
<path class="st0" d="M7.5,13.7l-2.1-2.5C5,10.3,4.8,9.5,6,8.8c0.9-0.5,2.1-0.3,2.6,0.5l1.3,1.8"/>
<path class="st0" d="M10.1,11.2L8.4,8.6C8,7.9,8.3,7.1,9.3,6.7c0.9-0.4,2.1-0.1,2.8,0.8l1.3,1.8"/>
<path class="st0" d="M12.3,7.8c-0.3-0.8,0.4-1.3,0.9-1.4c0.9-0.4,1.8,0,2.4,0.8l0.8,1"/>
<path class="st0" d="M7.3,13.7c0,0-0.4-0.4-1.2-1.2c-0.5-0.7-1.6-1-2,0.7c0,0,0.3,1.3,0.3,1.4c-0.5,1.4,0.1,2.2,0.9,2.9
	C6,18,6.8,18.3,7.6,18.7L8.3,19c1,0.5,2.1,0.8,3.1,1c1.8,0.3,3.7,0.3,5.5-0.4l2.9-0.9"/>
<path class="st0" d="M19.1,19.1l0.7-0.5c2.1-1.7,2.9-4.6,1.7-6.9c-0.7-1.4-1.4-2.9-2.1-3.9l-0.1-0.1c-0.8-1-1.4-1.6-2.4-1.6
	c-1.2,0-1.2,0.8-1.2,0.9"/>
<path class="st1" d="M-5-8.5"/>
<path class="st2" d="M10,0.4c-3.7,0.1-6.7,2-8.4,4s-1.4,4.8-0.8,7c0.7,2.3,3.3,5.6,3.4,5.7c1.3,0.9,3.3,1.6,3.3,1.4c0,0-3.8-3-3-4.4
	C3.9,13.3,5,12.5,5.4,11C5.5,10,4.8,8,5,6.9c0.3-1.3,0.7-2,1.3-2.7c0.7-0.7,1-0.9,1.8-1.2c0.8-0.3,2.9-0.8,4.6-0.4
	c2.2,0.5,2.9,1,4.1,1.7C19.1,5.6,20,7.5,20,7.6C17.8,5.9,14.7,0.2,10,0.4z"/>
<path class="st3" d="M6.7,16.4"/>
<path class="st4" d="M5.9,15.7"/>
<path class="st2" d="M3.5,15.1c0,0-1-0.5-0.9-0.1c0.3,0.7,0.9,2.1,2.2,3.4c2,2.1,3,2.6,5.6,3.3c2.3,0.4,4,0,5.4-0.4
	c2.2-1,1.8-1.1,3.3-1.7c0,0,0.7-0.7,1.4-1.4c1.6-1.7,2-4.3,1-6.4l0,0c-0.4-0.9-0.7-2.3-0.7-2.3c0.8,1.3,2.1,3.8,2.2,5.5
	c0.1,2-0.1,4-2.8,6c-3.5,2.6-7.5,2.6-10.4,1.7c-2.2-0.7-3.7-1.7-4.9-3.1C3.4,17.2,3.5,15.1,3.5,15.1z"/>
</svg>
