<?xml version="1.0" encoding="utf-8"?>
<!-- Generator: Adobe Illustrator 26.5.0, SVG Export Plug-In . SVG Version: 6.00 Build 0)  -->
<svg version="1.1" id="Layer_1" xmlns="http://www.w3.org/2000/svg" xmlns:xlink="http://www.w3.org/1999/xlink" x="0px" y="0px"
	 width="24px" height="24px" viewBox="0 0 24 24" style="enable-background:new 0 0 24 24;" xml:space="preserve">
<style type="text/css">
	.st0{fill:none;stroke:#007E65;stroke-width:1.2;stroke-linecap:round;stroke-linejoin:round;}
	.st1{fill:#118E3B;stroke:#1BCE85;stroke-width:1.5;stroke-linecap:round;stroke-linejoin:round;}
	.st2{fill:#007E65;}
	.st3{fill:#00E510;}
	.st4{fill:none;}
</style>
<path class="st0" d="M8.6,15.7l-1.9-2.6c-0.3-0.4-0.4-1.6,0.7-2.1c0.8-0.5,1.7-0.2,2.3,0.6l0.8,0.9"/>
<path class="st0" d="M10.5,12.5l-1.1-1.6C9,10.3,9.2,9.6,10.2,9.2c0.8-0.4,1.8,0,2.5,0.8l0.9,1.3"/>
<path class="st0" d="M12.6,9.7c-0.2-0.9,0.3-1.2,0.9-1.4c1.5-0.4,2.3,0.6,2.7,1.3l0.9,1.1"/>
<path class="st0" d="M8.6,15.7c0,0-0.7-0.7-1.3-1.4c-0.2-0.3-0.9-0.8-1.6-0.2c-0.6,0.6,0,1.9,0,2c-0.5,1.3,0.1,2,0.8,2.5
	c0.6,0.5,1.4,1.2,1.4,1.2c0.5,0.4,2.1,1.5,4.1,1.5c1.6,0.1,3.3-0.1,4.9-0.6c0.6-0.2,1.6-0.6,2.6-1.5c1.5-1.3,2.3-3.2,1.7-6.1
	c-0.6-2.1-1.7-3.4-2.4-4c-0.5-0.4-0.9-0.6-1.4-0.7c-0.6-0.1-1,0.4-1,0.8c0.1,0.6,0.8,1.4,0.8,1.5"/>
<path class="st1" d="M-5-8.5"/>
<path class="st2" d="M11.5,0.9C3.9,1.2,0.3,6.1,0.4,11.9c0,5.7,4.2,10.5,12.2,10.5c7-0.2,8.7-4.6,8.7-4.7c-1.3,1.1-3.9,3.7-5.5,3.8
	c-2.4,0.2-3.6,0.2-5.3-0.5c-2.8-1.2-5.7-2-5.2-4.8c-0.5-1,1-2,1.4-3.5c0-0.5,0.7-1.7,0.5-2.2c-0.6-0.9-0.9-2.6,0.3-4
	c1.3-1.4,3-2.2,5.9-2.2c5.5,0,9.6,5.2,9.1,10.9c0.7-1.9,0.9-3.7,0.7-5.3c-0.3-3.2-2.3-6-5.1-7.5C16.7,1.6,15.4,0.8,11.5,0.9z"/>
<path class="st3" d="M7.9,18.6L7.9,18.6z"/>
<path class="st4" d="M7,17.9"/>
</svg>
