<?xml version="1.0" encoding="utf-8"?>
<!-- Generator: Adobe Illustrator 26.5.0, SVG Export Plug-In . SVG Version: 6.00 Build 0)  -->
<svg version="1.1" id="Layer_1" xmlns="http://www.w3.org/2000/svg" xmlns:xlink="http://www.w3.org/1999/xlink" x="0px" y="0px"
	 width="24px" height="24px" viewBox="0 0 24 24" style="enable-background:new 0 0 24 24;" xml:space="preserve">
<style type="text/css">
	.st0{fill:none;stroke:#007E65;stroke-width:135;stroke-linecap:round;stroke-linejoin:round;}
	.st1{fill:#118E3B;stroke:#1BCE85;stroke-width:1.5;stroke-linecap:round;stroke-linejoin:round;}
	.st2{fill:#007E65;}
	.st3{fill:#00E510;}
	.st4{fill:none;}
</style>
<path class="st0" d="M-505.9,509.2L-713.4,265c-32.8-39.2-43.5-146.3,76.3-195.2c87-48.9,185.4-19.6,240.2,58.7l87,88.1"/>
<path class="st0" d="M-298.5,216.1L-418.3,69.8c-43.5-58.7-22.1-117.5,87-156.1c87-39.2,196.1,0,261.7,78.3l98.4,116.4"/>
<path class="st0" d="M-78.4-24.6c-22.1-87,27.9-130.8,94.1-150.3c164.5-38.6,241.4,58.2,285.5,116.4l99,96.8"/>
<path class="st0" d="M-505.9,509.2c0,0-76.3-68.5-141.9-127.3c-22.1-29.4-98.4-78.3-174.7-19.6c-65.6,58.7,0,175.7,0,185.5
	c-54.2,117.5,11.3,186,87.6,234.9c65.6,48.9,152.6,107.7,152.6,107.7c54.8,39.2,228.9,137.1,436.4,137.1
	c174.7,9.8,349.3-9.8,524-58.7c65.6-19.6,174.7-58.7,273-137.1c109.1-97.9,196.1-214.8,196.1-381.2
	c10.7-127.3-32.8-244.2-98.4-351.9c-65.6-97.9-131.1-165.9-174.7-205c-54.8-39.2-98.4-58.7-152.6-68.5
	c-65.6-9.8-109.1,39.2-109.1,78.3c10.7,58.7,87,127.3,87,137.1"/>
<path class="st1" d="M-1530-1268.4"/>
<path class="st2" d="M-145.9-1064.2c-884.1,9.8-1287.6,537.3-1298.4,1113.8c10.7,547.1,414.9,1084.4,1341.9,1094.2
	c818.5-29.4,981.8-508,981.8-517.7C737.6,733.8,464.6,978,290.5,987.8C28.8,1007.4-91.6,1027-277,958.4
	C-582.2,841-898.8,763.2-844.5,489.6c-54.8-97.9,109.1-195.2,152.6-342.1c0-48.9,109.1-97.9,87-146.3
	c-65.6-88.1-141.9-224.6-54.8-391c65.6-156.1,261.7-312.7,524-342.1C530.2-810.2,1010-302.2,988,333
	C1196.6-57.5,1032.7-1044.6-145.9-1064.2z"/>
<path class="st3" d="M-582.2,782.8L-582.2,782.8z"/>
<path class="st4" d="M-669.3,714.2"/>
<g id="Layer_2_00000178920186941683393910000009880265633718493619_">
</g>
</svg>
