<?xml version="1.0" encoding="utf-8"?>
<!-- Generator: Adobe Illustrator 26.5.0, SVG Export Plug-In . SVG Version: 6.00 Build 0)  -->
<svg version="1.1" id="Layer_1" xmlns="http://www.w3.org/2000/svg" xmlns:xlink="http://www.w3.org/1999/xlink" x="0px" y="0px"
	 width="24px" height="24px" viewBox="0 0 24 24" style="enable-background:new 0 0 24 24;" xml:space="preserve">
<style type="text/css">
	.st0{fill:none;stroke:#00CEA6;stroke-width:1.5;stroke-linecap:round;stroke-linejoin:round;}
	.st1{fill:#118E3B;stroke:#1BCE85;stroke-width:1.5;stroke-linecap:round;stroke-linejoin:round;}
	.st2{fill:#00CEA6;}
	.st3{fill:#00E510;}
	.st4{fill:none;}
</style>
<path class="st0" d="M8,12.7l-1.7-2.1c-0.4-0.5,0.3-1.3,1-1.6C8,8.7,8.6,8.8,9,9.4l1,1.4"/>
<path class="st0" d="M10,10.8L8.7,8.8C8.4,8.3,8.7,7.7,9.4,7.4C10.1,7.1,11,7.2,11.5,8l1,1.7"/>
<path class="st0" d="M11.7,8.2c-0.2-0.6,0.3-0.9,0.7-1.1c0.7-0.3,1.5-0.1,1.9,0.5l0.5,0.8"/>
<path class="st0" d="M8,12.7l-0.2-0.2c-0.4-0.4-1-0.5-1.5-0.3c-0.2,0.1-0.5,0.3-0.7,0.5c-0.1,0.1-0.1,0.1-0.2,0.1
	c-0.2,0.4-0.4,0.7-0.2,1.2c0.2,0.4,0.8,0.9,1.6,1.5c1,0.8,3,1.6,3,1.6c1.7,0.6,3.4,0.6,5.3,0.1l1.7-0.6c2.3-1.2,3.2-2.6,2.8-4.4
	c-0.3-1.3-1-2.5-1-2.5"/>
<path class="st0" d="M18.7,9.7l-1-1.7c-1.3-1.8-2.3-0.9-2.3-0.9c-1.3,0.6-0.4,1.3-0.4,1.3"/>
<path class="st1" d="M-5-8.5"/>
<path class="st2" d="M7.1,4C5.2,4.8,3.7,5.9,3,8.2c-0.2,0.8-0.3,1.6-0.2,2.4c0.2,3.1,1.9,4,2,4.1c1,0.7,2.7,1.9,2.7,1.8
	c0,0-3.3-2.3-2.6-3.4c-0.2-0.6,2.5-0.9,2.4-1.4c-0.5-1.5-1.3-3-1.3-4.1C5.8,6.6,6.1,5.8,6.7,5.2c0.5-0.5,0.8-0.7,1.4-0.9
	c0.6-0.2,1.1-0.4,2-0.5c1.1-0.1,2.3,0.2,4,0.9c2.3,1,3.8,2.7,3.8,2.8C15.1,3.9,10.6,2.6,7.1,4z"/>
<path class="st3" d="M6.9,14.8"/>
<path class="st4" d="M6.3,14.3"/>
<path class="st2" d="M4.2,13.8c0,0,0.6,2.6,3.6,4.1c1.7,0.9,3,1.1,4.9,0.9c1.8-0.2,2.9-1,3.8-1.5c0.3-0.2,3.2-3.3,3.2-3.3
	c0.2-1,0-2.3-0.4-3.2c-0.3-0.7-0.2-1.2,0.3-0.3v0c0.4,0.8,0.7,1.6,0.8,2.5c0.2,1.2,0.3,3-0.3,4.2c-0.4,0.9-1.4,1.9-3.2,2.6
	c-2.3,0.9-5.5,0.6-7.9-0.4c-1.6-0.7-2.3-1.3-3.3-2.3C4.5,15.7,4.2,13.8,4.2,13.8z"/>
</svg>
