<?xml version="1.0" encoding="utf-8"?>
<!-- Generator: Adobe Illustrator 26.5.0, SVG Export Plug-In . SVG Version: 6.00 Build 0)  -->
<svg version="1.1" id="Layer_1" xmlns="http://www.w3.org/2000/svg" xmlns:xlink="http://www.w3.org/1999/xlink" x="0px" y="0px"
	 width="24px" height="24px" viewBox="0 0 24 24" style="enable-background:new 0 0 24 24;" xml:space="preserve">
<style type="text/css">
	.st0{fill:none;stroke:#00CEA6;stroke-width:1.2;stroke-linecap:round;stroke-linejoin:round;}
	.st1{fill:#118E3B;stroke:#1BCE85;stroke-width:1.5;stroke-linecap:round;stroke-linejoin:round;}
	.st2{fill:#00CEA6;}
	.st3{fill:#00E510;}
	.st4{fill:none;}
</style>
<path class="st0" d="M7.9,13.8l-2.1-2.5C5.4,10.4,5.3,9.6,6.5,9c0.9-0.5,2.1-0.3,2.7,0.5l1.3,1.8"/>
<path class="st0" d="M10.6,11.3L8.9,8.7C8.5,8.1,8.7,7.3,9.8,6.9c0.9-0.4,2.1-0.1,2.8,0.8l1.3,1.8"/>
<path class="st0" d="M12.9,8c-0.3-0.8,0.4-1.3,0.9-1.4c0.9-0.4,1.9,0,2.4,0.8l0.8,1"/>
<path class="st0" d="M7.8,13.8c0,0-0.4-0.4-1.2-1.2c-0.5-0.6-1.6-1-2,0.6c0,0,0.3,1.3,0.3,1.4c-0.5,1.4,0.1,2.2,0.9,2.8
	c0.7,0.5,1.5,0.9,2.3,1.3l0.7,0.3c1.1,0.5,2.1,0.8,3.2,1c1.1,0.1,2.1,0.3,3.2,0.1c0.1,0-0.3,0,0,0"/>
<path class="st0" d="M15.1,20.2c0,0,3.9-0.9,5.6-2.6c1.5-1.3,1.6-2.2,1.6-3.2c0-1.9-0.7-3.9-1.6-5.6c-0.3-0.4-0.4-0.8-0.7-1
	l-0.1-0.1c-0.8-1-1.5-1.6-2.4-1.6c-1.2,0-1.2,0.8-1.2,0.9"/>
<path class="st1" d="M-5-8.5"/>
<path class="st2" d="M14.2,1.1c-2.1-0.8-3.6-0.9-6.3-0.4C5.4,1.2,3,2.8,1.9,4.6c-1.3,2.2-1.5,5.3-0.8,7.5c0.7,2.3,3.3,5,3.5,5.2
	c1.3,0.9,3.3,1.6,3.3,1.4c0,0-3.9-3-3.1-4.4c-0.5-0.9,0.5-2.6,0.9-4c0-0.5,1.1-0.9,0.9-1.4C6.6,8.3,5.3,7,6.1,5
	C6.7,3.4,8.2,3,9.1,2.8c0.8-0.3,2.4-0.4,4.1,0c2.3,0.5,2.9,1,4.1,1.7c0,0,0-0.1,0,0C17.1,3.4,16.2,1.9,14.2,1.1z"/>
<path class="st3" d="M7.1,16.5L7.1,16.5z"/>
<path class="st4" d="M6.3,15.8"/>
<path class="st2" d="M19.1,21.5c-2.5,1.4-5.3,1.9-8,1.7c-2.3-0.3-3.7-1-4.9-2.3c1.7,0.8,2.3,0.9,3.2,0.9c0.9,0,1.6-0.1,3.1-0.9
	l3.6-0.5c1.3-0.6,2.4-1.3,2.8-1.7c0,0,1.7-0.8,2.4-1.6c1.2-1.9,1.1-2.7,1.1-4.9c0-0.5-0.1-0.9-0.3-1.9c-0.2-0.6,1,1.8,1.1,4.7
	C23,18.2,21.6,20,19.1,21.5z"/>
</svg>
