<?xml version="1.0" encoding="utf-8"?>
<!-- Generator: Adobe Illustrator 26.5.0, SVG Export Plug-In . SVG Version: 6.00 Build 0)  -->
<svg version="1.1" id="Layer_1" xmlns="http://www.w3.org/2000/svg" xmlns:xlink="http://www.w3.org/1999/xlink" x="0px" y="0px"
	 width="24px" height="24px" viewBox="0 0 24 24" style="enable-background:new 0 0 24 24;" xml:space="preserve">
<style type="text/css">
	.st0{fill:none;stroke:#00CEA6;stroke-width:1.2;stroke-linecap:round;stroke-linejoin:round;}
	.st1{fill:#118E3B;stroke:#1BCE85;stroke-width:1.5;stroke-linecap:round;stroke-linejoin:round;}
	.st2{fill:#00CEA6;}
	.st3{fill:#00E510;}
	.st4{fill:none;}
</style>
<path class="st0" d="M7.5,12.7l-1.6-1.9C5.6,10.1,5.5,9.5,6.4,9c0.7-0.4,1.6-0.2,2,0.4l1,1.4"/>
<path class="st0" d="M9.5,10.8l-1.3-2C7.9,8.3,8.1,7.7,8.9,7.4C9.6,7.1,10.5,7.3,11,8l1,1.4"/>
<path class="st0" d="M11.2,8.2c-0.2-0.6,0.3-1,0.7-1.1c0.7-0.3,1.4,0,1.8,0.6l0.6,0.8"/>
<path class="st0" d="M7.4,12.7c0,0-0.3-0.3-0.9-0.9C6.1,11.3,5.3,11,5,12.3c0,0,0.2,1,0.2,1.1c-0.4,1.1,0.1,1.7,0.7,2.2
	c0.5,0.4,1.1,0.7,1.7,1l0.5,0.2c0.8,0.4,1.6,0.6,2.4,0.8c0.8,0.1,1.6,0.2,2.4,0.1c0.1,0-0.2,0,0,0"/>
<path class="st0" d="M12.9,17.7c0,0,2.9-0.7,4.2-2c1.1-1,1.2-1.7,1.2-2.5c0-1.5-0.5-3-1.2-4.3c-0.2-0.3-0.3-0.6-0.5-0.8l-0.1-0.1
	c-0.6-0.8-1.1-1.2-1.8-1.2c-0.9,0-0.9,0.6-0.9,0.7"/>
<path class="st1" d="M-5-8.5"/>
<path class="st2" d="M12.2,2.9c-1.6-0.6-2.7-0.7-4.7-0.3C5.6,3,3.8,4.2,3,5.6C2,7.3,1.9,9.3,2.4,11c0.5,1.8,2.5,4.3,2.6,4.4
	c1,0.7,2.5,1.2,2.5,1.1c0,0-2.9-2.3-2.3-3.4c-0.4-0.7,0.4-2,0.7-3.1c0-0.4,0.8-0.7,0.7-1.1c-0.1-0.4-1.1-1.4-0.5-3
	c0.5-1.2,1.6-1.5,2.3-1.7C9,4,10.2,3.9,11.5,4.2c1.7,0.4,2.2,0.8,3.1,1.3c0,0,0-0.1,0,0C14.4,4.7,13.7,3.5,12.2,2.9z"/>
<path class="st3" d="M6.9,14.8L6.9,14.8z"/>
<path class="st4" d="M6.3,14.3"/>
<path class="st2" d="M15.9,18.7c-2.4,1.5-3.9,1.8-6.1,1.5c-1.8-0.3-2.8-1-3.6-2c1.2,0.8,1.7,1,3,1c1.4,0,3-0.8,4.4-1.4l0,0
	c1-0.5,1.8-1,2.1-1.3c0,0,1.3-0.6,1.8-1.2c0.9-1.5,0.8-2.1,0.8-3.8c0-0.4-0.1-1.1-0.2-1.4c-0.1-0.4,0.7,1,0.7,3.4
	C19,15.8,17.8,17.5,15.9,18.7z"/>
</svg>
