<?xml version="1.0" encoding="utf-8"?>
<!-- Generator: Adobe Illustrator 26.5.0, SVG Export Plug-In . SVG Version: 6.00 Build 0)  -->
<svg version="1.1" id="Layer_1" xmlns="http://www.w3.org/2000/svg" xmlns:xlink="http://www.w3.org/1999/xlink" x="0px" y="0px"
	 width="24px" height="24px" viewBox="0 0 24 24" style="enable-background:new 0 0 24 24;" xml:space="preserve">
<style type="text/css">
	.st0{fill:none;stroke:#00CEA6;stroke-width:1.2;stroke-linecap:round;stroke-linejoin:round;}
	.st1{fill:#118E3B;stroke:#1BCE85;stroke-width:1.5;stroke-linecap:round;stroke-linejoin:round;}
	.st2{fill:#00CEA6;}
	.st3{fill:#00E510;}
	.st4{fill:none;}
</style>
<path class="st0" d="M7.5,12.7l-1.6-1.9C5.6,10.1,5.5,9.5,6.4,9c0.7-0.4,1.6-0.2,2,0.4l1,1.4"/>
<path class="st0" d="M9.5,10.8L8.2,8.8C7.9,8.3,8.1,7.7,8.9,7.4c0.7-0.3,1.6-0.1,2.1,0.6l1,1.4"/>
<path class="st0" d="M11.2,8.2c-0.2-0.6,0.3-1,0.7-1.1c0.7-0.3,1.4,0,1.8,0.6l0.6,0.8"/>
<path class="st0" d="M7.4,12.7c0,0-0.3-0.3-0.9-0.9c-0.4-0.5-1.2-0.8-1.5,0.5c0,0,0.2,1,0.2,1.1c-0.4,1.1,0.1,1.7,0.7,2.2
	c0.5,0.4,1.1,0.7,1.7,1l0.5,0.2c0.8,0.4,1.6,0.6,2.4,0.8c1.4,0.2,2.8,0.2,4.2-0.3l2.2-0.7"/>
<path class="st0" d="M16.4,16.9l0.5-0.4c1.6-1.3,2.2-3.5,1.3-5.3c-0.5-1.1-1.1-2.2-1.6-3l-0.1-0.1c-0.6-0.8-1.1-1.2-1.8-1.2
	c-0.9,0-0.9,0.6-0.9,0.7"/>
<path class="st1" d="M-5-8.5"/>
<path class="st2" d="M9.4,2.5C6.6,2.6,4.3,4,3,5.6C1.7,7.2,1.9,9.3,2.4,11c0.5,1.8,2.5,4.3,2.6,4.4c1,0.7,2.5,1.2,2.5,1.1
	c0,0-2.9-2.3-2.3-3.4c-0.4-0.7,0.4-1.3,0.7-2.4C6,9.9,5.5,8.4,5.6,7.5c0.2-1,0.5-1.5,1-2.1c0.5-0.5,0.8-0.7,1.4-0.9
	c0.6-0.2,2.2-0.6,3.5-0.3c1.7,0.4,2.2,0.8,3.1,1.3c1.8,1,2.2,2.2,2.2,2.3C13.6,4.6,13,2.4,9.4,2.5z"/>
<path class="st3" d="M6.9,14.8"/>
<path class="st4" d="M6.3,14.3"/>
<path class="st2" d="M4.1,14.1c0,0,0.5,3.1,4.1,4.3c1.7,0.6,2.7,0.9,4.5,0.5c1.8-0.4,2.9-1.1,3.8-1.6c0,0,0.5-0.5,1.1-1.1
	c1.2-1.3,1.5-3.3,0.8-4.9c0,0,0,0,0,0c-0.3-0.7-0.5-1.8-0.5-1.8c0.6,1,1.6,2.9,1.7,4.2c0.1,1.5-0.1,3.1-2.1,4.6
	c-2.7,2-5.7,2-7.9,1.3c-1.7-0.5-2.8-1.3-3.7-2.4C4.5,15.6,4.1,14.1,4.1,14.1z"/>
</svg>
