<?xml version="1.0" encoding="utf-8"?>
<!-- Generator: Adobe Illustrator 26.5.0, SVG Export Plug-In . SVG Version: 6.00 Build 0)  -->
<svg version="1.1" id="Layer_1" xmlns="http://www.w3.org/2000/svg" xmlns:xlink="http://www.w3.org/1999/xlink" x="0px" y="0px"
	 width="24px" height="24px" viewBox="0 0 24 24" style="enable-background:new 0 0 24 24;" xml:space="preserve">
<style type="text/css">
	.st0{fill:none;stroke:#00CEA6;stroke-width:1.2;stroke-linecap:round;stroke-linejoin:round;}
	.st1{fill:#118E3B;stroke:#1BCE85;stroke-width:1.5;stroke-linecap:round;stroke-linejoin:round;}
	.st2{fill:#00CEA6;}
	.st3{fill:#00E510;}
	.st4{fill:none;}
</style>
<path class="st0" d="M8.6,13.8l-2.1-2.5C6.1,10.4,6,9.6,7.2,9c0.9-0.5,2.1-0.3,2.7,0.5l1.3,1.8"/>
<path class="st0" d="M11.3,11.3L9.6,8.7c-0.4-0.6-0.2-1.4,0.9-1.8c0.9-0.4,2.1-0.1,2.8,0.8l1.3,1.8"/>
<path class="st0" d="M13.6,8c-0.3-0.8,0.4-1.3,0.9-1.4c0.9-0.4,1.9,0,2.4,0.8l0.8,1"/>
<path class="st0" d="M8.5,13.8c0,0-0.4-0.4-1.2-1.2c-0.5-0.6-1.6-1-2,0.6c0,0,0.3,1.3,0.3,1.4c-0.5,1.4,0.1,2.2,0.9,2.8
	c0.7,0.5,1.5,0.9,2.3,1.3L9.5,19c1.1,0.5,2.1,0.8,3.2,1c1.9,0.3,2.8,0.2,3.9-0.2"/>
<path class="st0" d="M12.7,20c0,0,1.8,0.3,3.9-0.2c3.2-1,5.7-2.9,6-6c0.1-1,0.1-2.7-0.8-4.4c-0.1-0.2-0.2-0.4-0.4-0.7
	c-0.5-0.8-1.2-1.5-1.9-2.1C19,6.3,18.6,6,18.2,6c-1.2,0-1.3,1.2-1.3,1.3"/>
<path class="st1" d="M-5-8.5"/>
<path class="st2" d="M12.7,0.9C6.8,0.6,1.3,4.3,1.3,11.9c0,5.8,6.6,9.3,11.6,9.3c4,0,6.8-2.1,6.8-2.2c-0.8,0.2-2.4,0.8-3.9,0.9
	c-2.3,0.2-4.9,0-5.5-0.2c-2.6-1.1-5.4-2.7-4.9-5.3c-0.5-0.9,0.5-2.6,0.9-4c0-0.5,1.1-0.9,0.9-1.4c-2.2-3.1-1.1-5,1.6-6.3
	c3.9-1.5,6.7-1,8.9,0.2c5.9,3.2,6.1,7.4,6,10.9c0,0,1-6.8-3.8-10.2C18.4,2.5,17.2,1.1,12.7,0.9z"/>
<path class="st3" d="M7.8,16.5L7.8,16.5z"/>
<path class="st4" d="M7,15.8"/>
</svg>
