<?xml version="1.0" encoding="utf-8"?>
<!-- Generator: Adobe Illustrator 26.5.0, SVG Export Plug-In . SVG Version: 6.00 Build 0)  -->
<svg version="1.1" id="Layer_1" xmlns="http://www.w3.org/2000/svg" xmlns:xlink="http://www.w3.org/1999/xlink" x="0px" y="0px"
	 width="24px" height="24px" viewBox="0 0 24 24" style="enable-background:new 0 0 24 24;" xml:space="preserve">
<style type="text/css">
	.st0{fill:none;stroke:#00CEA6;stroke-width:1.2;stroke-linecap:round;stroke-linejoin:round;}
	.st1{fill:#118E3B;stroke:#1BCE85;stroke-width:1.5;stroke-linecap:round;stroke-linejoin:round;}
	.st2{fill:#00CEA6;}
	.st3{fill:#00E510;}
	.st4{fill:none;}
</style>
<path class="st0" d="M7.6,14.8l-2.1-2.5C5.1,11.4,5,10.6,6.2,10c0.9-0.5,2.1-0.3,2.7,0.5l1.3,1.8"/>
<path class="st0" d="M10.3,12.3L8.6,9.7C8.2,9.1,8.4,8.3,9.5,7.9c0.9-0.4,2.1-0.1,2.8,0.8l1.3,1.8"/>
<path class="st0" d="M12.6,9c-0.3-0.8,0.4-1.3,0.9-1.4c0.9-0.4,1.9,0,2.4,0.8l0.8,1"/>
<path class="st0" d="M7.5,14.8c0,0-0.4-0.4-1.2-1.2c-0.5-0.6-1.6-1-2,0.6c0,0,0.3,1.3,0.3,1.4c-0.5,1.4,0.1,2.2,0.9,2.8
	c0.7,0.5,1.5,0.9,2.3,1.3L8.5,20c1.1,0.5,2.1,0.8,3.2,1c1.9,0.3,2.8,0.2,3.9-0.2"/>
<path class="st0" d="M11.7,21c0,0,1.8,0.3,3.9-0.2c3.2-1,5.7-2.9,6-6c0.1-1,0.1-2.7-0.8-4.4c-0.1-0.2-0.2-0.4-0.4-0.7
	c-0.5-0.8-1.2-1.5-1.9-2.1C18,7.3,17.6,7,17.2,7c-1.2,0-1.3,1.2-1.3,1.3"/>
<path class="st1" d="M-5-8.5"/>
<path class="st2" d="M11.8,1.7C6.1,1.8,0.6,5.4,0.7,12.4c0,5.8,5.4,9.8,11.2,9.8c4,0,6.8-2.1,6.8-2.2c-0.8,0.2-2.4,0.8-3.9,0.9
	c-2.3,0.2-4.9,0-5.5-0.2c-2.6-1.1-5.4-2.7-4.9-5.3c-0.5-0.9,0.5-2.6,0.9-4c0-0.5,1.1-0.9,0.9-1.4C4,6.9,6,4.9,9.5,3.9
	c0,0,0.1,0,0.1,0c4.9-1.4,10.2,1.2,12.2,6c0.7,1.7,1,3.3,0.9,5c0,0,1.2-6.7-3.7-10.8C17.5,2.9,16.1,1.7,11.8,1.7z"/>
<path class="st3" d="M6.8,17.5L6.8,17.5z"/>
<path class="st4" d="M6,16.8"/>
</svg>
